
<svg xmlns="http://www.w3.org/2000/svg" xmlns:xlink="http://www.w3.org/1999/xlink" version="1.1"  width="851" height="811">
<defs id="dmw_defs" >
<svg id="fk_sym" viewBox="0 0 48.665 48.665" style="enable-background:new 0 0 48.665 48.665;" >
<g>
<path d="M40.332,31.592c-2.377,0-4.515,1-6.033,2.598l-17.737-8.686c0.061-0.406,0.103-0.82,0.103-1.246    c0-0.414-0.04-0.818-0.098-1.215l17.711-8.589c1.519,1.609,3.666,2.619,6.054,2.619c4.603,0,8.333-3.731,8.333-8.333    c0-4.603-3.73-8.333-8.333-8.333s-8.333,3.73-8.333,8.333c0,0.414,0.04,0.817,0.098,1.215l-17.709,8.589    c-1.519-1.609-3.666-2.619-6.054-2.619C3.73,15.925,0,19.656,0,24.258c0,4.603,3.73,8.333,8.333,8.333    c2.377,0,4.515-1,6.033-2.596l17.736,8.685c-0.062,0.406-0.104,0.82-0.104,1.245c0,4.604,3.73,8.333,8.333,8.333    s8.333-3.729,8.333-8.333C48.665,35.322,44.935,31.592,40.332,31.592z" fill="#13bf3b"/>
</g>
</svg>
<svg id="pk_sym" viewBox="0 0 480.509 480.509" style="enable-background:new 0 0 480.509 480.509;" >
<g>
<path d="M418.119,331.046c4.094,4.374,7.766,8.186,10.996,11.416c3.237,3.238,6.714,6.376,10.427,9.422   c3.71,3.042,6.427,4.568,8.135,4.568c3.241,0,9.517-4.661,18.843-13.99c9.328-9.321,13.989-15.604,13.989-18.842   c0-1.523-2.714-5.421-8.138-11.704c-5.421-6.276-12.364-13.702-20.838-22.271c-8.473-8.565-16.703-16.744-24.694-24.55   c-8.001-7.81-15.8-15.373-23.417-22.703c-7.611-7.327-11.992-11.56-13.135-12.703c-1.902-1.902-4.093-2.853-6.563-2.853   c-3.237,0-9.521,4.661-18.843,13.988c-9.328,9.322-13.989,15.605-13.989,18.843c0,1.711,1.522,4.421,4.568,8.138   c3.046,3.71,6.188,7.187,9.421,10.424c3.23,3.23,7.047,6.899,11.42,10.992c4.377,4.093,6.848,6.423,7.423,6.995l-27.408,27.404   L254.954,222.268c24.94-33.498,37.408-68.236,37.408-104.211c0-31.024-9.761-56.293-29.263-75.801   c-19.512-19.511-44.778-29.265-75.805-29.265c-30.454,0-60.244,9.042-89.363,27.119c-29.121,18.083-52.727,41.686-70.808,70.808   C9.042,140.038,0,169.828,0,200.28c0,31.029,9.753,56.286,29.265,75.803c19.511,19.517,44.777,29.27,75.801,29.27   c35.976,0,70.71-12.467,104.212-37.407l191.574,191.579c5.332,5.328,11.796,7.994,19.417,7.994c7.991,0,15.704-3.72,23.12-11.14   c7.426-7.426,11.143-15.129,11.143-23.127c0-7.617-2.666-14.092-7.994-19.417l-62.811-62.811l27.405-27.404   C411.699,324.195,414.033,326.666,418.119,331.046z M221.556,161.458c-10.656,10.657-23.601,15.987-38.828,15.987   c-7.996,0-15.896-1.812-23.7-5.43c3.617,7.808,5.426,15.706,5.426,23.7c0,15.229-5.327,28.171-15.987,38.828   c-10.66,10.655-23.606,15.986-38.831,15.986c-15.227,0-28.168-5.325-38.828-15.986c-10.657-10.657-15.987-23.599-15.987-38.828   c0-15.227,5.327-28.171,15.987-38.828C81.464,146.23,94.409,140.9,109.636,140.9c7.992,0,15.893,1.809,23.695,5.424   c-3.616-7.804-5.424-15.706-5.424-23.699c0-15.227,5.327-28.171,15.987-38.828c10.66-10.657,23.604-15.987,38.831-15.987   c15.227,0,28.171,5.327,38.828,15.987c10.657,10.66,15.987,23.601,15.987,38.828C237.539,137.852,232.209,150.797,221.556,161.458z   " fill="#ff8345"/>
</g>
</svg>
<svg id="uk_sym" viewBox="0 0 490 490" style="enable-background:new 0 0 490 490;" >
<g>
	<polygon points="236.99,11.41 0,246.348 236.99,478.678 236.99,350.609 129.864,245 236.99,139.391  " fill="#0064fb"/>
<polygon points="253.01,478.59 490,243.651 253.01,11.322 253.01,139.391 360.136,245 253.01,350.609  " fill="#0064fb"/>
</g>
</svg>
<svg id="link_sym" viewBox="0 0 1000 900" style="enable-background:new 0 0 1000 900;" >
<g>
<path fill="black" d="M660.224 422.656c6.976 16.192-0.512 35.008-16.768 42.048-16.128 6.976-34.944-0.448-41.984-16.768-8.448-19.776-20.736-37.696-36.224-53.248-64.64-64.64-177.344-64.64-241.92 0l-145.216 145.28c-66.688 66.688-66.688 175.232 0 241.984 66.688 66.688 175.104 66.752 241.92 0l92.8-92.864c12.48-12.48 32.768-12.48 45.248 0s12.48 32.768 0 45.248l-92.8 92.864c-91.648 91.648-240.832 91.52-332.416 0-91.712-91.648-91.712-240.832 0-332.48l145.216-145.28c44.352-44.416 103.424-68.864 166.272-68.864s121.792 24.448 166.208 68.864c21.248 21.312 38.016 45.952 49.664 73.216zM891.136 401.344l-145.216 145.216c-88.768 88.832-243.712 88.832-332.416 0-21.312-21.312-38.080-45.952-49.728-73.216-7.040-16.256 0.448-35.072 16.704-42.048 16.064-6.784 35.008 0.512 41.984 16.768 8.512 19.776 20.8 37.696 36.288 53.248 64.64 64.64 177.344 64.64 241.92 0l145.216-145.216c66.688-66.688 66.688-175.232 0-241.984-66.752-66.624-175.168-66.688-241.92 0l-92.8 92.864c-12.48 12.48-32.768 12.48-45.248 0s-12.48-32.768 0-45.248l92.8-92.864c45.824-45.824 105.984-68.736 166.208-68.736s120.448 22.912 166.272 68.736c91.584 91.648 91.584 240.768-0.064 332.48z" />
</g>
</svg>
<clipPath clipPathUnits="userSpaceOnUse" id="clipPath5_0_">
<rect x="0" y="0" width="264" height="324" />
</clipPath>
<clipPath clipPathUnits="userSpaceOnUse" id="clipPath3_0_">
<rect x="0" y="0" width="323" height="254" />
</clipPath>
<clipPath clipPathUnits="userSpaceOnUse" id="clipPath4_0_">
<rect x="0" y="0" width="241" height="198" />
</clipPath>
<clipPath clipPathUnits="userSpaceOnUse" id="clipPath6_0_">
<rect x="0" y="0" width="235" height="212" />
</clipPath>
<clipPath clipPathUnits="userSpaceOnUse" id="clipPath2_0_">
<rect x="0" y="0" width="235" height="226" />
</clipPath>
</defs>
<g stroke-linecap="butt" >
<path stroke="rgb(0,0,0)" fill="none" stroke-opacity="1.0"  stroke-width="1" d="M207 548 L207 613" />
<polygon stroke="rgb(0,0,0)" stroke-dasharray="none" points="207 548 210 554 204 554" fill="rgb(0,0,0)" stroke-width="1" stroke-opacity="1.0"  />
<path stroke-dasharray="none" d="M201.0 613.0 L207.0 601.0 L213.0 613.0 M201.0 600.4000005722046 L213.0 600.4000005722046" fill="white" stroke-width="1" stroke-opacity="1.0" stroke="rgb(0,0,0)" />
</g>
<g stroke-linecap="butt" >
<path stroke="rgb(0,0,0)" fill="none" stroke-opacity="1.0"  stroke-width="1" d="M230 336 L230 274" />
<polygon stroke="rgb(0,0,0)" stroke-dasharray="none" points="230 336 227 330 233 330" fill="rgb(0,0,0)" stroke-width="1" stroke-opacity="1.0"  />
<path stroke-dasharray="none" d="M236.0 274.0 L230.0 286.0 L224.0 274.0 M236.0 286.5999994277954 L224.0 286.5999994277954" fill="white" stroke-width="1" stroke-opacity="1.0" stroke="rgb(0,0,0)" />
</g>
<g stroke-linecap="butt" >
<path stroke="rgb(0,0,0)" fill="none" stroke-opacity="1.0"  stroke-width="1" d="M317 698 L587 698" />
<polygon stroke="rgb(0,0,0)" stroke-dasharray="none" points="317 698 323 695 323 701" fill="rgb(0,0,0)" stroke-width="1" stroke-opacity="1.0"  />
<path stroke-dasharray="none" d="M587.0 704.0 L575.0 698.0 L587.0 692.0 M574.4000005722046 704.0 L574.4000005722046 692.0" fill="white" stroke-width="1" stroke-opacity="1.0" stroke="rgb(0,0,0)" />
</g>
<g stroke-linecap="butt" >
<path stroke="rgb(0,0,0)" fill="none" stroke-opacity="1.0"  stroke-width="1" d="M222 548 L222 613" />
<polygon stroke="rgb(0,0,0)" stroke-dasharray="none" points="222 548 225 554 219 554" fill="rgb(0,0,0)" stroke-width="1" stroke-opacity="1.0"  />
<path stroke-dasharray="none" d="M216.0 613.0 L222.0 601.0 L228.0 613.0 M216.0 600.4000005722046 L228.0 600.4000005722046" fill="white" stroke-width="1" stroke-opacity="1.0" stroke="rgb(0,0,0)" />
</g>
<g stroke-linecap="butt" >
<path stroke="rgb(0,0,0)" fill="none" stroke-opacity="1.0"  stroke-width="1" d="M333 372 L585 372" />
<polygon stroke="rgb(0,0,0)" stroke-dasharray="none" points="333 372 339 369 339 375" fill="rgb(0,0,0)" stroke-width="1" stroke-opacity="1.0"  />
<path stroke-dasharray="none" d="M585.0 378.0 L573.0 372.0 L585.0 366.0 M572.4000005722046 378.0 L572.4000005722046 366.0" fill="white" stroke-width="1" stroke-opacity="1.0" stroke="rgb(0,0,0)" />
</g>
<g stroke-linecap="butt" >
<path stroke="rgb(0,0,0)" fill="none" stroke-opacity="1.0"  stroke-width="1" d="M333 357 L585 357" />
<polygon stroke="rgb(0,0,0)" stroke-dasharray="none" points="333 357 339 354 339 360" fill="rgb(0,0,0)" stroke-width="1" stroke-opacity="1.0"  />
<path stroke-dasharray="none" d="M585.0 363.0 L573.0 357.0 L585.0 351.0 M572.4000005722046 363.0 L572.4000005722046 351.0" fill="white" stroke-width="1" stroke-opacity="1.0" stroke="rgb(0,0,0)" />
</g>
<g stroke-linecap="butt" >
<path stroke="rgb(0,0,0)" fill="none" stroke-opacity="1.0"  stroke-width="1" d="M585 213 L343 213" />
<polygon stroke="rgb(0,0,0)" stroke-dasharray="none" points="585 213 579 216 579 210" fill="rgb(0,0,0)" stroke-width="1" stroke-opacity="1.0"  />
<path stroke-dasharray="none" d="M343.0 207.0 L355.0 213.0 L343.0 219.0 M355.5999994277954 207.0 L355.5999994277954 219.0" fill="white" stroke-width="1" stroke-opacity="1.0" stroke="rgb(0,0,0)" />
</g>
<g stroke-linecap="butt" >
<path stroke="rgb(0,0,0)" fill="none" stroke-opacity="1.0"  stroke-width="1" d="M333 475 L358 475 L358 573 L251 573 L251 548" />
<polygon stroke="rgb(0,0,0)" stroke-dasharray="none" points="333 475 339 472 339 478" fill="rgb(0,0,0)" stroke-width="1" stroke-opacity="1.0"  />
<path stroke-dasharray="none" d="M257.0 548.0 L251.0 560.0 L245.0 548.0 M257.0 560.5999994277954 L245.0 560.5999994277954" fill="white" stroke-width="1" stroke-opacity="1.0" stroke="rgb(0,0,0)" />
</g>
<g stroke-linecap="butt" >
<path stroke="rgb(0,0,0)" fill="none" stroke-opacity="1.0"  stroke-width="1" d="M333 519 L587 519" />
<polygon stroke="rgb(0,0,0)" stroke-dasharray="none" points="333 519 339 516 339 522" fill="rgb(0,0,0)" stroke-width="1" stroke-opacity="1.0"  />
<path stroke-dasharray="none" d="M587.0 525.0 L575.0 519.0 L587.0 513.0 M574.4000005722046 525.0 L574.4000005722046 513.0" fill="white" stroke-width="1" stroke-opacity="1.0" stroke="rgb(0,0,0)" />
</g>
<g stroke-linecap="butt" >
<path stroke="rgb(0,0,0)" fill="none" stroke-opacity="1.0"  stroke-width="1" d="M587 505 L325 274" />
<polygon stroke="rgb(0,0,0)" stroke-dasharray="none" points="587 505 582 504 584 500" fill="rgb(0,0,0)" stroke-width="1" stroke-opacity="1.0"  />
<path stroke-dasharray="none" d="M328.0 270.0 L333.0 280.0 L322.0 278.0 M336.3999996185303 276.2999997138977 L330.3999996185303 284.2999997138977" fill="white" stroke-width="1" stroke-opacity="1.0" stroke="rgb(0,0,0)" />
</g>
<g stroke-linecap="butt" >
<path stroke="rgb(0,0,0)" fill="none" stroke-opacity="1.0"  stroke-width="1" d="M333 460 L383 460 L383 598 L236 598 L236 548" />
<polygon stroke="rgb(0,0,0)" stroke-dasharray="none" points="333 460 339 457 339 463" fill="rgb(0,0,0)" stroke-width="1" stroke-opacity="1.0"  />
<path stroke-dasharray="none" d="M242.0 548.0 L236.0 560.0 L230.0 548.0 M242.0 560.5999994277954 L230.0 560.5999994277954" fill="white" stroke-width="1" stroke-opacity="1.0" stroke="rgb(0,0,0)" />
</g>
<g stroke-linecap="butt" >
<path stroke="rgb(0,0,0)" fill="none" stroke-opacity="1.0"  stroke-width="1" d="M333 489 L587 489" />
<polygon stroke="rgb(0,0,0)" stroke-dasharray="none" points="333 489 339 486 339 492" fill="rgb(0,0,0)" stroke-width="1" stroke-opacity="1.0"  />
<path stroke-dasharray="none" d="M587.0 495.0 L575.0 489.0 L587.0 483.0 M574.4000005722046 495.0 L574.4000005722046 483.0" fill="white" stroke-width="1" stroke-opacity="1.0" stroke="rgb(0,0,0)" />
</g>
<g stroke-linecap="butt" >
<path stroke="rgb(0,0,0)" fill="none" stroke-opacity="1.0"  stroke-width="1" d="M215 336 L215 274" />
<polygon stroke="rgb(0,0,0)" stroke-dasharray="none" points="215 336 212 330 218 330" fill="rgb(0,0,0)" stroke-width="1" stroke-opacity="1.0"  />
<path stroke-dasharray="none" d="M221.0 274.0 L215.0 286.0 L209.0 274.0 M221.0 286.5999994277954 L209.0 286.5999994277954" fill="white" stroke-width="1" stroke-opacity="1.0" stroke="rgb(0,0,0)" />
</g>
<g  fill="rgb(255,255,180)" stroke="rgb(0,0,255)" fill-opacity="1.0" stroke-opacity="1.0" clip-path="url(#clipPath4_0_)" transform="translate(76,613)" >
<rect x="0" y="0" width="240" height="197" />
<text id="966E8013-4967F2B999BA" x="75" y="14" fill="rgb(0,0,255)" font-weight="bold"  fill-opacity="1.0" font-size="10" stroke="none">
MY_TESTING.MAH
</text>
<line x1="0" y1="18" x2="239" y2="18" fill="none" stroke="rgb(0,0,255)"/>
<text x="16" y="32" fill="rgb(255,0,0)" fill-opacity="1.0" font-size="10" stroke="none">
*
</text>
<text x="2" y="32" fill="rgb(0,0,255)" fill-opacity="1.0" font-size="10" stroke="none">
P
</text>
<text x="26" y="32" fill="rgb(0,0,0)" fill-opacity="1.0" font-size="10" stroke="none">
MAH_ID
</text>
<text x="115" y="32" fill="rgb(0,128,0)" fill-opacity="1.0" font-size="10" stroke="none">
NUMBER (10)
</text>
<text x="16" y="46" fill="rgb(255,0,0)" fill-opacity="1.0" font-size="10" stroke="none">
*
</text>
<text x="26" y="46" fill="rgb(0,0,0)" fill-opacity="1.0" font-size="10" stroke="none">
NAME
</text>
<text x="115" y="46" fill="rgb(0,128,0)" fill-opacity="1.0" font-size="10" stroke="none">
VARCHAR2 (100 BYTE)
</text>
<text x="16" y="60" fill="rgb(255,0,0)" fill-opacity="1.0" font-size="10" stroke="none">
*
</text>
<text x="26" y="60" fill="rgb(0,0,0)" fill-opacity="1.0" font-size="10" stroke="none">
COUNTRY
</text>
<text x="115" y="60" fill="rgb(0,128,0)" fill-opacity="1.0" font-size="10" stroke="none">
VARCHAR2 (100 BYTE)
</text>
<text x="16" y="74" fill="rgb(255,0,0)" fill-opacity="1.0" font-size="10" stroke="none">
*
</text>
<text x="26" y="74" fill="rgb(0,0,0)" fill-opacity="1.0" font-size="10" stroke="none">
CREATED_DT
</text>
<text x="115" y="74" fill="rgb(0,128,0)" fill-opacity="1.0" font-size="10" stroke="none">
DATE
</text>
<text x="16" y="88" fill="rgb(255,0,0)" fill-opacity="1.0" font-size="10" stroke="none">
*
</text>
<text x="26" y="88" fill="rgb(0,0,0)" fill-opacity="1.0" font-size="10" stroke="none">
UPDATED_DT
</text>
<text x="115" y="88" fill="rgb(0,128,0)" fill-opacity="1.0" font-size="10" stroke="none">
DATE
</text>
<text x="16" y="102" fill="rgb(255,0,0)" fill-opacity="1.0" font-size="10" stroke="none">
*
</text>
<text x="2" y="102" fill="rgb(0,0,0)" fill-opacity="1.0" font-size="10" stroke="none">
F
</text>
<text x="26" y="102" fill="rgb(0,0,0)" fill-opacity="1.0" font-size="10" stroke="none">
CUSR_ID
</text>
<text x="115" y="102" fill="rgb(0,128,0)" fill-opacity="1.0" font-size="10" stroke="none">
NUMBER (10)
</text>
<text x="16" y="116" fill="rgb(255,0,0)" fill-opacity="1.0" font-size="10" stroke="none">
*
</text>
<text x="2" y="116" fill="rgb(0,0,0)" fill-opacity="1.0" font-size="10" stroke="none">
F
</text>
<text x="26" y="116" fill="rgb(0,0,0)" fill-opacity="1.0" font-size="10" stroke="none">
UUSR_ID
</text>
<text x="115" y="116" fill="rgb(0,128,0)" fill-opacity="1.0" font-size="10" stroke="none">
NUMBER (10)
</text>
<line x1="0" y1="122" x2="239" y2="122" fill="none" stroke="rgb(0,0,255)"/>
<use xlink:href="#pk_sym" x="4" y="129" width="8" height="8" fill-opacity="1.0"/>
<text x="16" y="136" fill="rgb(0,0,0)" fill-opacity="1.0" font-size="10" stroke="none">
MAH_MAH_ID_PK (MAH_ID)
</text>
<line x1="0" y1="142" x2="239" y2="142" fill="none" stroke="rgb(0,0,255)"/>
<use xlink:href="#fk_sym" x="4" y="149" width="8" height="8" fill-opacity="1.0"/><a xlink:href="#B051F7CB-7A1D71F0263B" >
<text x="16" y="156" fill="rgb(0,0,0)" fill-opacity="1.0" font-size="10" stroke="none">
MAH_USERS_CUSR_ID_FK (CUSR_ID)
</text></a>
<use xlink:href="#fk_sym" x="4" y="163" width="8" height="8" fill-opacity="1.0"/><a xlink:href="#B051F7CB-7A1D71F0263B" >
<text x="16" y="170" fill="rgb(0,0,0)" fill-opacity="1.0" font-size="10" stroke="none">
MAH_USERS_UUSR_ID_FK (UUSR_ID)
</text></a>
<line x1="0" y1="176" x2="239" y2="176" fill="none" stroke="rgb(0,0,255)"/>
<text x="2" y="190" fill="rgb(0,0,0)" fill-opacity="1.0" font-size="10" stroke="none">
U
</text>
<text x="16" y="190" fill="rgb(0,0,0)" fill-opacity="1.0" font-size="10" stroke="none">
MAH_MAH_ID_PK (MAH_ID)
</text>
</g>
<g  fill="rgb(255,255,180)" stroke="rgb(0,0,255)" fill-opacity="1.0" stroke-opacity="1.0" clip-path="url(#clipPath6_0_)" transform="translate(98,336)" >
<rect x="0" y="0" width="234" height="211" />
<text id="B051F7CB-7A1D71F0263B" x="66" y="14" fill="rgb(0,0,255)" font-weight="bold"  fill-opacity="1.0" font-size="10" stroke="none">
MY_TESTING.USERS
</text>
<line x1="0" y1="18" x2="233" y2="18" fill="none" stroke="rgb(0,0,255)"/>
<text x="16" y="32" fill="rgb(255,0,0)" fill-opacity="1.0" font-size="10" stroke="none">
*
</text>
<text x="2" y="32" fill="rgb(0,0,255)" fill-opacity="1.0" font-size="10" stroke="none">
P
</text>
<text x="26" y="32" fill="rgb(0,0,0)" fill-opacity="1.0" font-size="10" stroke="none">
USR_ID
</text>
<text x="115" y="32" fill="rgb(0,128,0)" fill-opacity="1.0" font-size="10" stroke="none">
NUMBER (10)
</text>
<text x="16" y="46" fill="rgb(255,0,0)" fill-opacity="1.0" font-size="10" stroke="none">
*
</text>
<text x="26" y="46" fill="rgb(0,0,0)" fill-opacity="1.0" font-size="10" stroke="none">
NAME
</text>
<text x="115" y="46" fill="rgb(0,128,0)" fill-opacity="1.0" font-size="10" stroke="none">
VARCHAR2 (50 BYTE)
</text>
<text x="16" y="60" fill="rgb(255,0,0)" fill-opacity="1.0" font-size="10" stroke="none">
*
</text>
<text x="26" y="60" fill="rgb(0,0,0)" fill-opacity="1.0" font-size="10" stroke="none">
SURNAME
</text>
<text x="115" y="60" fill="rgb(0,128,0)" fill-opacity="1.0" font-size="10" stroke="none">
VARCHAR2 (50 BYTE)
</text>
<text x="16" y="74" fill="rgb(255,0,0)" fill-opacity="1.0" font-size="10" stroke="none">
*
</text>
<text x="26" y="74" fill="rgb(0,0,0)" fill-opacity="1.0" font-size="10" stroke="none">
EMAIL
</text>
<text x="115" y="74" fill="rgb(0,128,0)" fill-opacity="1.0" font-size="10" stroke="none">
VARCHAR2 (50 BYTE)
</text>
<text x="16" y="88" fill="rgb(255,0,0)" fill-opacity="1.0" font-size="10" stroke="none">
*
</text>
<text x="26" y="88" fill="rgb(0,0,0)" fill-opacity="1.0" font-size="10" stroke="none">
CREATED_DT
</text>
<text x="115" y="88" fill="rgb(0,128,0)" fill-opacity="1.0" font-size="10" stroke="none">
DATE
</text>
<text x="16" y="102" fill="rgb(255,0,0)" fill-opacity="1.0" font-size="10" stroke="none">
*
</text>
<text x="26" y="102" fill="rgb(0,0,0)" fill-opacity="1.0" font-size="10" stroke="none">
UPDATED_DT
</text>
<text x="115" y="102" fill="rgb(0,128,0)" fill-opacity="1.0" font-size="10" stroke="none">
DATE
</text>
<text x="16" y="116" fill="rgb(255,0,0)" fill-opacity="1.0" font-size="10" stroke="none">
*
</text>
<text x="2" y="116" fill="rgb(0,0,0)" fill-opacity="1.0" font-size="10" stroke="none">
F
</text>
<text x="26" y="116" fill="rgb(0,0,0)" fill-opacity="1.0" font-size="10" stroke="none">
CUSR_ID
</text>
<text x="115" y="116" fill="rgb(0,128,0)" fill-opacity="1.0" font-size="10" stroke="none">
NUMBER (10)
</text>
<text x="16" y="130" fill="rgb(255,0,0)" fill-opacity="1.0" font-size="10" stroke="none">
*
</text>
<text x="2" y="130" fill="rgb(0,0,0)" fill-opacity="1.0" font-size="10" stroke="none">
F
</text>
<text x="26" y="130" fill="rgb(0,0,0)" fill-opacity="1.0" font-size="10" stroke="none">
UUSR_ID
</text>
<text x="115" y="130" fill="rgb(0,128,0)" fill-opacity="1.0" font-size="10" stroke="none">
NUMBER (10)
</text>
<line x1="0" y1="136" x2="233" y2="136" fill="none" stroke="rgb(0,0,255)"/>
<use xlink:href="#pk_sym" x="4" y="143" width="8" height="8" fill-opacity="1.0"/>
<text x="16" y="150" fill="rgb(0,0,0)" fill-opacity="1.0" font-size="10" stroke="none">
USERS_USR_ID_PK (USR_ID)
</text>
<line x1="0" y1="156" x2="233" y2="156" fill="none" stroke="rgb(0,0,255)"/>
<use xlink:href="#fk_sym" x="4" y="163" width="8" height="8" fill-opacity="1.0"/><a xlink:href="#B051F7CB-7A1D71F0263B" >
<text x="16" y="170" fill="rgb(0,0,0)" fill-opacity="1.0" font-size="10" stroke="none">
USERS_USERS_CUSR_ID_FK (CUSR_ID)
</text></a>
<use xlink:href="#fk_sym" x="4" y="177" width="8" height="8" fill-opacity="1.0"/><a xlink:href="#B051F7CB-7A1D71F0263B" >
<text x="16" y="184" fill="rgb(0,0,0)" fill-opacity="1.0" font-size="10" stroke="none">
USERS_USERS_UUSR_ID_FK (UUSR_ID)
</text></a>
<line x1="0" y1="190" x2="233" y2="190" fill="none" stroke="rgb(0,0,255)"/>
<text x="2" y="204" fill="rgb(0,0,0)" fill-opacity="1.0" font-size="10" stroke="none">
U
</text>
<text x="16" y="204" fill="rgb(0,0,0)" fill-opacity="1.0" font-size="10" stroke="none">
USERS_USR_ID_PK (USR_ID)
</text>
</g>
<g  fill="rgb(255,255,180)" stroke="rgb(0,0,255)" fill-opacity="1.0" stroke-opacity="1.0" clip-path="url(#clipPath2_0_)" transform="translate(585,152)" >
<rect x="0" y="0" width="234" height="225" />
<text id="F06895C8-3B83F1C7F5B3" x="71" y="14" fill="rgb(0,0,255)" font-weight="bold"  fill-opacity="1.0" font-size="10" stroke="none">
MY_TESTING.CATP
</text>
<line x1="0" y1="18" x2="233" y2="18" fill="none" stroke="rgb(0,0,255)"/>
<text x="16" y="32" fill="rgb(255,0,0)" fill-opacity="1.0" font-size="10" stroke="none">
*
</text>
<text x="2" y="32" fill="rgb(0,0,255)" fill-opacity="1.0" font-size="10" stroke="none">
P
</text>
<text x="26" y="32" fill="rgb(0,0,0)" fill-opacity="1.0" font-size="10" stroke="none">
CATP_ID
</text>
<text x="115" y="32" fill="rgb(0,128,0)" fill-opacity="1.0" font-size="10" stroke="none">
NUMBER (10)
</text>
<text x="16" y="46" fill="rgb(255,0,0)" fill-opacity="1.0" font-size="10" stroke="none">
*
</text>
<text x="26" y="46" fill="rgb(0,0,0)" fill-opacity="1.0" font-size="10" stroke="none">
ACTIVE
</text>
<text x="115" y="46" fill="rgb(0,128,0)" fill-opacity="1.0" font-size="10" stroke="none">
CHAR (1 BYTE)
</text>
<text x="16" y="60" fill="rgb(255,0,0)" fill-opacity="1.0" font-size="10" stroke="none">
*
</text>
<text x="2" y="60" fill="rgb(0,0,255)" fill-opacity="1.0" font-size="10" stroke="none">
U
</text>
<text x="26" y="60" fill="rgb(0,0,0)" fill-opacity="1.0" font-size="10" stroke="none">
NAME
</text>
<text x="115" y="60" fill="rgb(0,128,0)" fill-opacity="1.0" font-size="10" stroke="none">
VARCHAR2 (50 BYTE)
</text>
<text x="16" y="74" fill="rgb(255,0,0)" fill-opacity="1.0" font-size="10" stroke="none">
*
</text>
<text x="26" y="74" fill="rgb(0,0,0)" fill-opacity="1.0" font-size="10" stroke="none">
CREATED_DT
</text>
<text x="115" y="74" fill="rgb(0,128,0)" fill-opacity="1.0" font-size="10" stroke="none">
DATE
</text>
<text x="16" y="88" fill="rgb(255,0,0)" fill-opacity="1.0" font-size="10" stroke="none">
*
</text>
<text x="26" y="88" fill="rgb(0,0,0)" fill-opacity="1.0" font-size="10" stroke="none">
UPDATED_DT
</text>
<text x="115" y="88" fill="rgb(0,128,0)" fill-opacity="1.0" font-size="10" stroke="none">
DATE
</text>
<text x="16" y="102" fill="rgb(255,0,0)" fill-opacity="1.0" font-size="10" stroke="none">
*
</text>
<text x="2" y="102" fill="rgb(0,0,0)" fill-opacity="1.0" font-size="10" stroke="none">
F
</text>
<text x="26" y="102" fill="rgb(0,0,0)" fill-opacity="1.0" font-size="10" stroke="none">
CUSR_ID
</text>
<text x="115" y="102" fill="rgb(0,128,0)" fill-opacity="1.0" font-size="10" stroke="none">
NUMBER (10)
</text>
<text x="16" y="116" fill="rgb(255,0,0)" fill-opacity="1.0" font-size="10" stroke="none">
*
</text>
<text x="2" y="116" fill="rgb(0,0,0)" fill-opacity="1.0" font-size="10" stroke="none">
F
</text>
<text x="26" y="116" fill="rgb(0,0,0)" fill-opacity="1.0" font-size="10" stroke="none">
UUSR_ID
</text>
<text x="115" y="116" fill="rgb(0,128,0)" fill-opacity="1.0" font-size="10" stroke="none">
NUMBER (10)
</text>
<line x1="0" y1="122" x2="233" y2="122" fill="none" stroke="rgb(0,0,255)"/>
<use xlink:href="#pk_sym" x="4" y="129" width="8" height="8" fill-opacity="1.0"/>
<text x="16" y="136" fill="rgb(0,0,0)" fill-opacity="1.0" font-size="10" stroke="none">
CATP_CATP_ID_PK (CATP_ID)
</text>
<use xlink:href="#uk_sym" x="4" y="143" width="8" height="8" fill-opacity="1.0"/>
<text x="16" y="150" fill="rgb(0,0,0)" fill-opacity="1.0" font-size="10" stroke="none">
CATP_NAME_UK (NAME)
</text>
<line x1="0" y1="156" x2="233" y2="156" fill="none" stroke="rgb(0,0,255)"/>
<use xlink:href="#fk_sym" x="4" y="163" width="8" height="8" fill-opacity="1.0"/><a xlink:href="#B051F7CB-7A1D71F0263B" >
<text x="16" y="170" fill="rgb(0,0,0)" fill-opacity="1.0" font-size="10" stroke="none">
CATP_USERS_CUSR_ID_FK (CUSR_ID)
</text></a>
<use xlink:href="#fk_sym" x="4" y="177" width="8" height="8" fill-opacity="1.0"/><a xlink:href="#B051F7CB-7A1D71F0263B" >
<text x="16" y="184" fill="rgb(0,0,0)" fill-opacity="1.0" font-size="10" stroke="none">
CATP_USERS_UUSR_ID_FK (UUSR_ID)
</text></a>
<line x1="0" y1="190" x2="233" y2="190" fill="none" stroke="rgb(0,0,255)"/>
<text x="2" y="204" fill="rgb(0,0,0)" fill-opacity="1.0" font-size="10" stroke="none">
U
</text>
<text x="16" y="204" fill="rgb(0,0,0)" fill-opacity="1.0" font-size="10" stroke="none">
CATP_CATP_ID_PK (CATP_ID)
</text>
<text x="2" y="218" fill="rgb(0,0,0)" fill-opacity="1.0" font-size="10" stroke="none">
U
</text>
<text x="16" y="218" fill="rgb(0,0,0)" fill-opacity="1.0" font-size="10" stroke="none">
CATP_NAME_UK (NAME)
</text>
</g>
<g  fill="rgb(255,255,180)" stroke="rgb(0,0,255)" fill-opacity="1.0" stroke-opacity="1.0" clip-path="url(#clipPath5_0_)" transform="translate(587,460)" >
<rect x="0" y="0" width="263" height="323" />
<text id="5E4DC975-034BEBA56B2C" x="84" y="14" fill="rgb(0,0,255)" font-weight="bold"  fill-opacity="1.0" font-size="10" stroke="none">
MY_TESTING.PROD
</text>
<line x1="0" y1="18" x2="262" y2="18" fill="none" stroke="rgb(0,0,255)"/>
<text x="16" y="32" fill="rgb(255,0,0)" fill-opacity="1.0" font-size="10" stroke="none">
*
</text>
<text x="2" y="32" fill="rgb(0,0,255)" fill-opacity="1.0" font-size="10" stroke="none">
P
</text>
<text x="26" y="32" fill="rgb(0,0,0)" fill-opacity="1.0" font-size="10" stroke="none">
PROD_ID
</text>
<text x="138" y="32" fill="rgb(0,128,0)" fill-opacity="1.0" font-size="10" stroke="none">
NUMBER (10)
</text>
<text x="16" y="46" fill="rgb(255,0,0)" fill-opacity="1.0" font-size="10" stroke="none">
*
</text>
<text x="26" y="46" fill="rgb(0,0,0)" fill-opacity="1.0" font-size="10" stroke="none">
STATUS
</text>
<text x="138" y="46" fill="rgb(0,128,0)" fill-opacity="1.0" font-size="10" stroke="none">
CHAR (1 BYTE)
</text>
<text x="16" y="60" fill="rgb(255,0,0)" fill-opacity="1.0" font-size="10" stroke="none">
*
</text>
<text x="26" y="60" fill="rgb(0,0,0)" fill-opacity="1.0" font-size="10" stroke="none">
PROD_NAME
</text>
<text x="138" y="60" fill="rgb(0,128,0)" fill-opacity="1.0" font-size="10" stroke="none">
VARCHAR2 (120 BYTE)
</text>
<text x="16" y="74" fill="rgb(255,0,0)" fill-opacity="1.0" font-size="10" stroke="none">

</text>
<text x="26" y="74" fill="rgb(0,0,0)" fill-opacity="1.0" font-size="10" stroke="none">
PROD_FORM
</text>
<text x="138" y="74" fill="rgb(0,128,0)" fill-opacity="1.0" font-size="10" stroke="none">
VARCHAR2 (40 BYTE)
</text>
<text x="16" y="88" fill="rgb(255,0,0)" fill-opacity="1.0" font-size="10" stroke="none">

</text>
<text x="26" y="88" fill="rgb(0,0,0)" fill-opacity="1.0" font-size="10" stroke="none">
PROD_STRENGTH
</text>
<text x="138" y="88" fill="rgb(0,128,0)" fill-opacity="1.0" font-size="10" stroke="none">
VARCHAR2 (20 BYTE)
</text>
<text x="16" y="102" fill="rgb(255,0,0)" fill-opacity="1.0" font-size="10" stroke="none">

</text>
<text x="26" y="102" fill="rgb(0,0,0)" fill-opacity="1.0" font-size="10" stroke="none">
PROD_PACKAGE
</text>
<text x="138" y="102" fill="rgb(0,128,0)" fill-opacity="1.0" font-size="10" stroke="none">
VARCHAR2 (40 BYTE)
</text>
<text x="16" y="116" fill="rgb(255,0,0)" fill-opacity="1.0" font-size="10" stroke="none">
*
</text>
<text x="2" y="116" fill="rgb(0,0,0)" fill-opacity="1.0" font-size="10" stroke="none">
F
</text>
<text x="26" y="116" fill="rgb(0,0,0)" fill-opacity="1.0" font-size="10" stroke="none">
MAH_ID
</text>
<text x="138" y="116" fill="rgb(0,128,0)" fill-opacity="1.0" font-size="10" stroke="none">
NUMBER (10)
</text>
<text x="16" y="130" fill="rgb(255,0,0)" fill-opacity="1.0" font-size="10" stroke="none">

</text>
<text x="26" y="130" fill="rgb(0,0,0)" fill-opacity="1.0" font-size="10" stroke="none">
BLZ7
</text>
<text x="138" y="130" fill="rgb(0,128,0)" fill-opacity="1.0" font-size="10" stroke="none">
NUMBER (10)
</text>
<text x="16" y="144" fill="rgb(255,0,0)" fill-opacity="1.0" font-size="10" stroke="none">

</text>
<text x="26" y="144" fill="rgb(0,0,0)" fill-opacity="1.0" font-size="10" stroke="none">
GTIN
</text>
<text x="138" y="144" fill="rgb(0,128,0)" fill-opacity="1.0" font-size="10" stroke="none">
NUMBER (14)
</text>
<text x="16" y="158" fill="rgb(255,0,0)" fill-opacity="1.0" font-size="10" stroke="none">
*
</text>
<text x="26" y="158" fill="rgb(0,0,0)" fill-opacity="1.0" font-size="10" stroke="none">
PROD_STOCK
</text>
<text x="138" y="158" fill="rgb(0,128,0)" fill-opacity="1.0" font-size="10" stroke="none">
NUMBER (15,3)
</text>
<text x="16" y="172" fill="rgb(255,0,0)" fill-opacity="1.0" font-size="10" stroke="none">
*
</text>
<text x="26" y="172" fill="rgb(0,0,0)" fill-opacity="1.0" font-size="10" stroke="none">
PROD_PRICE
</text>
<text x="138" y="172" fill="rgb(0,128,0)" fill-opacity="1.0" font-size="10" stroke="none">
NUMBER (15,3)
</text>
<text x="16" y="186" fill="rgb(255,0,0)" fill-opacity="1.0" font-size="10" stroke="none">
*
</text>
<text x="26" y="186" fill="rgb(0,0,0)" fill-opacity="1.0" font-size="10" stroke="none">
CREATED_DT
</text>
<text x="138" y="186" fill="rgb(0,128,0)" fill-opacity="1.0" font-size="10" stroke="none">
DATE
</text>
<text x="16" y="200" fill="rgb(255,0,0)" fill-opacity="1.0" font-size="10" stroke="none">
*
</text>
<text x="26" y="200" fill="rgb(0,0,0)" fill-opacity="1.0" font-size="10" stroke="none">
UPDATED_DT
</text>
<text x="138" y="200" fill="rgb(0,128,0)" fill-opacity="1.0" font-size="10" stroke="none">
DATE
</text>
<text x="16" y="214" fill="rgb(255,0,0)" fill-opacity="1.0" font-size="10" stroke="none">
*
</text>
<text x="2" y="214" fill="rgb(0,0,0)" fill-opacity="1.0" font-size="10" stroke="none">
F
</text>
<text x="26" y="214" fill="rgb(0,0,0)" fill-opacity="1.0" font-size="10" stroke="none">
CUSR_ID
</text>
<text x="138" y="214" fill="rgb(0,128,0)" fill-opacity="1.0" font-size="10" stroke="none">
NUMBER (10)
</text>
<text x="16" y="228" fill="rgb(255,0,0)" fill-opacity="1.0" font-size="10" stroke="none">
*
</text>
<text x="2" y="228" fill="rgb(0,0,0)" fill-opacity="1.0" font-size="10" stroke="none">
F
</text>
<text x="26" y="228" fill="rgb(0,0,0)" fill-opacity="1.0" font-size="10" stroke="none">
UUSR_ID
</text>
<text x="138" y="228" fill="rgb(0,128,0)" fill-opacity="1.0" font-size="10" stroke="none">
NUMBER (10)
</text>
<line x1="0" y1="234" x2="262" y2="234" fill="none" stroke="rgb(0,0,255)"/>
<use xlink:href="#pk_sym" x="4" y="241" width="8" height="8" fill-opacity="1.0"/>
<text x="16" y="248" fill="rgb(0,0,0)" fill-opacity="1.0" font-size="10" stroke="none">
PROD_PROD_ID_PK (PROD_ID)
</text>
<line x1="0" y1="254" x2="262" y2="254" fill="none" stroke="rgb(0,0,255)"/>
<use xlink:href="#fk_sym" x="4" y="261" width="8" height="8" fill-opacity="1.0"/><a xlink:href="#966E8013-4967F2B999BA" >
<text x="16" y="268" fill="rgb(0,0,0)" fill-opacity="1.0" font-size="10" stroke="none">
PROD_MAH_MAH_ID_FK (MAH_ID)
</text></a>
<use xlink:href="#fk_sym" x="4" y="275" width="8" height="8" fill-opacity="1.0"/><a xlink:href="#B051F7CB-7A1D71F0263B" >
<text x="16" y="282" fill="rgb(0,0,0)" fill-opacity="1.0" font-size="10" stroke="none">
PROD_USERS_CUSR_ID_FK (CUSR_ID)
</text></a>
<use xlink:href="#fk_sym" x="4" y="289" width="8" height="8" fill-opacity="1.0"/><a xlink:href="#B051F7CB-7A1D71F0263B" >
<text x="16" y="296" fill="rgb(0,0,0)" fill-opacity="1.0" font-size="10" stroke="none">
PROD_USERS_UUSR_ID_FK (UUSR_ID)
</text></a>
<line x1="0" y1="302" x2="262" y2="302" fill="none" stroke="rgb(0,0,255)"/>
<text x="2" y="316" fill="rgb(0,0,0)" fill-opacity="1.0" font-size="10" stroke="none">
U
</text>
<text x="16" y="316" fill="rgb(0,0,0)" fill-opacity="1.0" font-size="10" stroke="none">
PROD_PROD_ID_PK (PROD_ID)
</text>
</g>
<g  fill="rgb(255,255,180)" stroke="rgb(0,0,255)" fill-opacity="1.0" stroke-opacity="1.0" clip-path="url(#clipPath3_0_)" transform="translate(20,20)" >
<rect x="0" y="0" width="322" height="253" />
<text id="77F31B06-B80959413E9A" x="97" y="14" fill="rgb(0,0,255)" font-weight="bold"  fill-opacity="1.0" font-size="10" stroke="none">
MY_TESTING.CATP_PROD
</text>
<line x1="0" y1="18" x2="321" y2="18" fill="none" stroke="rgb(0,0,255)"/>
<text x="16" y="32" fill="rgb(255,0,0)" fill-opacity="1.0" font-size="10" stroke="none">
*
</text>
<text x="2" y="32" fill="rgb(0,0,255)" fill-opacity="1.0" font-size="10" stroke="none">
P
</text>
<text x="26" y="32" fill="rgb(0,0,0)" fill-opacity="1.0" font-size="10" stroke="none">
CATP_PROD_ID
</text>
<text x="125" y="32" fill="rgb(0,128,0)" fill-opacity="1.0" font-size="10" stroke="none">
NUMBER (10)
</text>
<text x="16" y="46" fill="rgb(255,0,0)" fill-opacity="1.0" font-size="10" stroke="none">
*
</text>
<text x="2" y="46" fill="rgb(0,0,255)" fill-opacity="1.0" font-size="10" stroke="none">
UF
</text>
<text x="26" y="46" fill="rgb(0,0,0)" fill-opacity="1.0" font-size="10" stroke="none">
CATP_ID
</text>
<text x="125" y="46" fill="rgb(0,128,0)" fill-opacity="1.0" font-size="10" stroke="none">
NUMBER (10)
</text>
<text x="16" y="60" fill="rgb(255,0,0)" fill-opacity="1.0" font-size="10" stroke="none">
*
</text>
<text x="2" y="60" fill="rgb(0,0,255)" fill-opacity="1.0" font-size="10" stroke="none">
UF
</text>
<text x="26" y="60" fill="rgb(0,0,0)" fill-opacity="1.0" font-size="10" stroke="none">
PROD_ID
</text>
<text x="125" y="60" fill="rgb(0,128,0)" fill-opacity="1.0" font-size="10" stroke="none">
NUMBER (10)
</text>
<text x="16" y="74" fill="rgb(255,0,0)" fill-opacity="1.0" font-size="10" stroke="none">
*
</text>
<text x="26" y="74" fill="rgb(0,0,0)" fill-opacity="1.0" font-size="10" stroke="none">
CREATED_DT
</text>
<text x="125" y="74" fill="rgb(0,128,0)" fill-opacity="1.0" font-size="10" stroke="none">
DATE
</text>
<text x="16" y="88" fill="rgb(255,0,0)" fill-opacity="1.0" font-size="10" stroke="none">
*
</text>
<text x="26" y="88" fill="rgb(0,0,0)" fill-opacity="1.0" font-size="10" stroke="none">
UPDATED_DT
</text>
<text x="125" y="88" fill="rgb(0,128,0)" fill-opacity="1.0" font-size="10" stroke="none">
DATE
</text>
<text x="16" y="102" fill="rgb(255,0,0)" fill-opacity="1.0" font-size="10" stroke="none">
*
</text>
<text x="2" y="102" fill="rgb(0,0,0)" fill-opacity="1.0" font-size="10" stroke="none">
F
</text>
<text x="26" y="102" fill="rgb(0,0,0)" fill-opacity="1.0" font-size="10" stroke="none">
CUSR_ID
</text>
<text x="125" y="102" fill="rgb(0,128,0)" fill-opacity="1.0" font-size="10" stroke="none">
NUMBER (10)
</text>
<text x="16" y="116" fill="rgb(255,0,0)" fill-opacity="1.0" font-size="10" stroke="none">
*
</text>
<text x="2" y="116" fill="rgb(0,0,0)" fill-opacity="1.0" font-size="10" stroke="none">
F
</text>
<text x="26" y="116" fill="rgb(0,0,0)" fill-opacity="1.0" font-size="10" stroke="none">
UUSR_ID
</text>
<text x="125" y="116" fill="rgb(0,128,0)" fill-opacity="1.0" font-size="10" stroke="none">
NUMBER (10)
</text>
<line x1="0" y1="122" x2="321" y2="122" fill="none" stroke="rgb(0,0,255)"/>
<use xlink:href="#uk_sym" x="4" y="129" width="8" height="8" fill-opacity="1.0"/>
<text x="16" y="136" fill="rgb(0,0,0)" fill-opacity="1.0" font-size="10" stroke="none">
CATP_PROD_CATP_ID_PROD_ID_UK (CATP_ID, PROD_ID)
</text>
<use xlink:href="#pk_sym" x="4" y="143" width="8" height="8" fill-opacity="1.0"/>
<text x="16" y="150" fill="rgb(0,0,0)" fill-opacity="1.0" font-size="10" stroke="none">
CATP_PROD_CATP_PROD_ID_PK (CATP_PROD_ID)
</text>
<line x1="0" y1="156" x2="321" y2="156" fill="none" stroke="rgb(0,0,255)"/>
<use xlink:href="#fk_sym" x="4" y="163" width="8" height="8" fill-opacity="1.0"/><a xlink:href="#F06895C8-3B83F1C7F5B3" >
<text x="16" y="170" fill="rgb(0,0,0)" fill-opacity="1.0" font-size="10" stroke="none">
CATP_PROD_CAPT_CATP_ID_FK (CATP_ID)
</text></a>
<use xlink:href="#fk_sym" x="4" y="177" width="8" height="8" fill-opacity="1.0"/><a xlink:href="#5E4DC975-034BEBA56B2C" >
<text x="16" y="184" fill="rgb(0,0,0)" fill-opacity="1.0" font-size="10" stroke="none">
CATP_PROD_PROD_PROD_ID_FK (PROD_ID)
</text></a>
<use xlink:href="#fk_sym" x="4" y="191" width="8" height="8" fill-opacity="1.0"/><a xlink:href="#B051F7CB-7A1D71F0263B" >
<text x="16" y="198" fill="rgb(0,0,0)" fill-opacity="1.0" font-size="10" stroke="none">
CATP_PROD_USERS_CUSR_ID_FK (CUSR_ID)
</text></a>
<use xlink:href="#fk_sym" x="4" y="205" width="8" height="8" fill-opacity="1.0"/><a xlink:href="#B051F7CB-7A1D71F0263B" >
<text x="16" y="212" fill="rgb(0,0,0)" fill-opacity="1.0" font-size="10" stroke="none">
CATP_PROD_USERS_UUSR_ID_FK (UUSR_ID)
</text></a>
<line x1="0" y1="218" x2="321" y2="218" fill="none" stroke="rgb(0,0,255)"/>
<text x="2" y="232" fill="rgb(0,0,0)" fill-opacity="1.0" font-size="10" stroke="none">
U
</text>
<text x="16" y="232" fill="rgb(0,0,0)" fill-opacity="1.0" font-size="10" stroke="none">
CATP_PROD_CATP_ID_PROD_ID_UK (CATP_ID, PROD_ID)
</text>
<text x="2" y="246" fill="rgb(0,0,0)" fill-opacity="1.0" font-size="10" stroke="none">
U
</text>
<text x="16" y="246" fill="rgb(0,0,0)" fill-opacity="1.0" font-size="10" stroke="none">
CATP_PROD_CATP_PROD_ID_PK (CATP_PROD_ID)
</text>
</g>

</svg>